<svg id="Layer_1" data-name="Layer 1" xmlns="http://www.w3.org/2000/svg" viewBox="380 390 640 230">
  <defs>
    <!-- Effet silver accentué : contraste légèrement renforcé -->
    <linearGradient id="silver-elegant" gradientUnits="userSpaceOnUse" x1="380" y1="390" x2="1020" y2="620">
      <stop offset="0%" stop-color="#FFFFFF"/>
      <stop offset="25%" stop-color="#CBD5E1"/>
      <stop offset="48%" stop-color="#FFFFFF"/>
      <stop offset="52%" stop-color="#94A3B8"/>
      <stop offset="75%" stop-color="#E2E8F0"/>
      <stop offset="100%" stop-color="#FFFFFF"/>
    </linearGradient>
  </defs>
  <!-- S -->
  <path d="M487.11,462.32c-27.5-4.22-40-5.54-40-14.21,0-4.67,3.44-7.54,9-7.54h72.42V423.22l-20.4-20.4h-37c-38.9,0-63.83,17.1-63.83,48,0,37.52,36.76,38.85,63,43.74,17.4,3.11,24.05,7.1,24.05,14.88,0,8.43-8.81,13.32-24.27,13.32-17.83,0-29.65-5.78-36.74-15.1L404.61,532.7a81.75,81.75,0,0,0,61.87,27.76c39.11,0,67.69-22.64,67.69-55.51C534.17,469.66,500.65,464.55,487.11,462.32Z" fill="url(#silver-elegant)"/>
  <!-- K -->
  <path d="M660.72,440.57H619.89l-17.18,44.19h-20.2v-93H546V558.25h36.53v-40.2h29.87l18.26,40.2h30.08V536.48L638.8,488.07Z" fill="url(#silver-elegant)"/>
  <!-- Y -->
  <path d="M748.16,440.57l-21.28,63.27-21-63.27H669.31L708.4,558.25h.22c-4.51,11.77-11.38,22.2-23.84,22.2H673v33.31h12c34.17,0,51.14-28.65,61.67-60l38-113.24Z" fill="url(#silver-elegant)"/>
  <!-- R -->
  <path d="M854.94,438.35l-20.21,21.08H829.8V440.57H793.28V558.25H829.8V496.08c0-13.32,10.09-24.42,22.13-24.42h32.23V438.35Z" fill="url(#silver-elegant)"/>
  <!-- A -->
  <path d="M995.66,440.79l-4.28,15.32a57.38,57.38,0,0,0-41.27-17.76c-32.23,0-58.44,27.08-58.44,61.06s26.21,61.05,58.44,61.05l22.13-23.09h6.24v20.88H1015V440.79Zm-42.1,86.37c-13.75,0-25.36-12.65-25.36-27.75,0-15.32,11.61-27.75,25.36-27.75s24.92,12.21,24.92,27.75S967.31,527.16,953.56,527.16Z" fill="url(#silver-elegant)"/>
</svg>
